<svg xmlns="http://www.w3.org/2000/svg" xmlns:xlink="http://www.w3.org/1999/xlink" width="375" viewBox="0 0 375 375" height="375" version="1.0"><defs><g id="h"><path d="M 0.421875 -21.15625 C 0.421875 -17.96875 -0.28125 -15.070312 -1.6875 -12.46875 C -3.09375 -9.875 -5.164062 -7.8125 -7.90625 -6.28125 C -10.644531 -4.757812 -13.921875 -4 -17.734375 -4 C -20.640625 -4 -23.878906 -4.5 -27.453125 -5.5 C -35.078125 -7.695312 -40.460938 -11.140625 -43.609375 -15.828125 C -46.753906 -20.523438 -48.328125 -25.546875 -48.328125 -30.890625 C -48.328125 -35.753906 -46.566406 -40.140625 -43.046875 -44.046875 L -45.109375 -46.1875 C -46.117188 -47.375 -46.8125 -48.394531 -47.1875 -49.25 C -47.570312 -50.113281 -47.765625 -51.117188 -47.765625 -52.265625 C -47.765625 -53.503906 -47.460938 -54.503906 -46.859375 -55.265625 C -46.265625 -56.023438 -45.46875 -56.40625 -44.46875 -56.40625 C -44.09375 -56.40625 -43.640625 -56.335938 -43.109375 -56.203125 L -34.109375 -53.625 C -32.578125 -53.144531 -31.5 -52.582031 -30.875 -51.9375 C -30.257812 -51.300781 -29.953125 -50.429688 -29.953125 -49.328125 C -29.953125 -48.191406 -30.238281 -47.179688 -30.8125 -46.296875 C -31.382812 -45.410156 -32.410156 -44.394531 -33.890625 -43.25 C -35.890625 -41.726562 -37.304688 -40.382812 -38.140625 -39.21875 C -38.972656 -38.050781 -39.390625 -36.773438 -39.390625 -35.390625 C -39.390625 -33.242188 -38.304688 -31.207031 -36.140625 -29.28125 C -33.972656 -27.351562 -30.363281 -25.671875 -25.3125 -24.234375 C -22.019531 -23.328125 -19.179688 -22.875 -16.796875 -22.875 C -14.273438 -22.875 -12.359375 -23.363281 -11.046875 -24.34375 C -9.734375 -25.320312 -9.078125 -26.691406 -9.078125 -28.453125 C -9.078125 -29.984375 -9.429688 -31.164062 -10.140625 -32 C -10.859375 -32.832031 -12.101562 -33.488281 -13.875 -33.96875 L -15.65625 -34.46875 C -16.613281 -34.707031 -17.257812 -34.828125 -17.59375 -34.828125 C -18.164062 -34.828125 -18.566406 -34.691406 -18.796875 -34.421875 C -19.035156 -34.160156 -19.300781 -33.722656 -19.59375 -33.109375 L -20.515625 -30.609375 C -20.941406 -29.503906 -21.726562 -28.953125 -22.875 -28.953125 C -23.207031 -28.953125 -23.472656 -28.976562 -23.671875 -29.03125 C -24.285156 -29.21875 -24.734375 -29.5625 -25.015625 -30.0625 C -25.304688 -30.5625 -25.453125 -31.335938 -25.453125 -32.390625 L -25.375 -53.984375 C -25.375 -55.554688 -24.875 -56.34375 -23.875 -56.34375 C -23.6875 -56.34375 -23.398438 -56.296875 -23.015625 -56.203125 C -22.304688 -56.003906 -21.734375 -55.691406 -21.296875 -55.265625 C -20.867188 -54.835938 -20.441406 -54.21875 -20.015625 -53.40625 L -18.953125 -51.546875 C -18.660156 -51.078125 -18.382812 -50.722656 -18.125 -50.484375 C -17.863281 -50.242188 -17.539062 -50.078125 -17.15625 -49.984375 L -3.9375 -46.1875 C -2.363281 -45.707031 -1.3125 -45.171875 -0.78125 -44.578125 C -0.257812 -43.984375 0 -43.257812 0 -42.40625 L 0 -39.390625 C 0 -38.253906 -0.238281 -37.316406 -0.71875 -36.578125 C -1.195312 -35.835938 -2.125 -35.226562 -3.5 -34.75 L -5.578125 -34.03125 C -1.578125 -30.601562 0.421875 -26.3125 0.421875 -21.15625 Z M 0.421875 -21.15625"/></g><g id="i"><path d="M -47.625 -62.484375 C -47.625 -63.492188 -47.457031 -64.269531 -47.125 -64.8125 C -46.789062 -65.363281 -46.359375 -65.640625 -45.828125 -65.640625 C -45.585938 -65.640625 -45.28125 -65.566406 -44.90625 -65.421875 C -44.570312 -65.273438 -44.269531 -65.070312 -44 -64.8125 C -43.738281 -64.550781 -43.546875 -64.3125 -43.421875 -64.09375 C -43.304688 -63.882812 -43.203125 -63.734375 -43.109375 -63.640625 C -42.679688 -62.867188 -42.203125 -62.242188 -41.671875 -61.765625 C -41.148438 -61.296875 -40.34375 -60.894531 -39.25 -60.5625 L -8.4375 -51.765625 C -7.8125 -51.578125 -7.21875 -51.484375 -6.65625 -51.484375 C -6.082031 -51.484375 -5.628906 -51.566406 -5.296875 -51.734375 C -4.960938 -51.898438 -4.53125 -52.148438 -4 -52.484375 C -3.957031 -52.523438 -3.78125 -52.65625 -3.46875 -52.875 C -3.15625 -53.09375 -2.832031 -53.203125 -2.5 -53.203125 C -2.40625 -53.203125 -2.164062 -53.148438 -1.78125 -53.046875 C -1.113281 -52.816406 -0.648438 -52.363281 -0.390625 -51.6875 C -0.128906 -51.019531 0 -50.019531 0 -48.6875 L 0 -31.890625 C 0 -30.890625 -0.164062 -30.113281 -0.5 -29.5625 C -0.832031 -29.019531 -1.285156 -28.75 -1.859375 -28.75 C -2.140625 -28.75 -2.445312 -28.816406 -2.78125 -28.953125 C -3.164062 -29.148438 -3.488281 -29.414062 -3.75 -29.75 C -4.007812 -30.082031 -4.238281 -30.414062 -4.4375 -30.75 C -4.863281 -31.507812 -5.347656 -32.125 -5.890625 -32.59375 C -6.441406 -33.070312 -7.289062 -33.476562 -8.4375 -33.8125 L -20.375 -37.25 L -20.375 -24.59375 L -8.4375 -21.15625 C -7.8125 -20.96875 -7.21875 -20.875 -6.65625 -20.875 C -6.082031 -20.875 -5.628906 -20.957031 -5.296875 -21.125 C -4.960938 -21.289062 -4.53125 -21.539062 -4 -21.875 C -3.957031 -21.925781 -3.78125 -22.054688 -3.46875 -22.265625 C -3.15625 -22.484375 -2.832031 -22.59375 -2.5 -22.59375 C -2.40625 -22.59375 -2.164062 -22.546875 -1.78125 -22.453125 C -1.113281 -22.210938 -0.648438 -21.757812 -0.390625 -21.09375 C -0.128906 -20.425781 0 -19.425781 0 -18.09375 L 0 -1.28125 C 0 -0.28125 -0.164062 0.488281 -0.5 1.03125 C -0.832031 1.582031 -1.285156 1.859375 -1.859375 1.859375 C -2.140625 1.859375 -2.445312 1.785156 -2.78125 1.640625 C -3.164062 1.453125 -3.488281 1.191406 -3.75 0.859375 C -4.007812 0.523438 -4.238281 0.191406 -4.4375 -0.140625 C -4.863281 -0.898438 -5.347656 -1.519531 -5.890625 -2 C -6.441406 -2.476562 -7.289062 -2.882812 -8.4375 -3.21875 L -39.25 -12.015625 C -39.875 -12.203125 -40.472656 -12.296875 -41.046875 -12.296875 C -41.566406 -12.296875 -42.003906 -12.210938 -42.359375 -12.046875 C -42.722656 -11.878906 -43.140625 -11.65625 -43.609375 -11.375 C -43.847656 -11.175781 -44.097656 -11.003906 -44.359375 -10.859375 C -44.628906 -10.722656 -44.90625 -10.65625 -45.1875 -10.65625 C -45.28125 -10.65625 -45.519531 -10.703125 -45.90625 -10.796875 C -46.519531 -10.984375 -46.957031 -11.410156 -47.21875 -12.078125 C -47.488281 -12.742188 -47.625 -13.75 -47.625 -15.09375 L -47.625 -31.890625 C -47.625 -32.890625 -47.457031 -33.660156 -47.125 -34.203125 C -46.789062 -34.753906 -46.359375 -35.03125 -45.828125 -35.03125 C -45.585938 -35.03125 -45.28125 -34.960938 -44.90625 -34.828125 C -44.570312 -34.679688 -44.269531 -34.472656 -44 -34.203125 C -43.738281 -33.941406 -43.546875 -33.703125 -43.421875 -33.484375 C -43.304688 -33.273438 -43.203125 -33.125 -43.109375 -33.03125 C -42.679688 -32.269531 -42.203125 -31.648438 -41.671875 -31.171875 C -41.148438 -30.691406 -40.34375 -30.285156 -39.25 -29.953125 L -27.53125 -26.59375 L -27.53125 -39.25 L -39.25 -42.609375 C -39.875 -42.804688 -40.472656 -42.90625 -41.046875 -42.90625 C -41.566406 -42.90625 -42.003906 -42.820312 -42.359375 -42.65625 C -42.722656 -42.488281 -43.140625 -42.257812 -43.609375 -41.96875 C -43.847656 -41.78125 -44.097656 -41.613281 -44.359375 -41.46875 C -44.628906 -41.320312 -44.90625 -41.25 -45.1875 -41.25 C -45.28125 -41.25 -45.519531 -41.300781 -45.90625 -41.40625 C -46.519531 -41.59375 -46.957031 -42.019531 -47.21875 -42.6875 C -47.488281 -43.351562 -47.625 -44.351562 -47.625 -45.6875 Z M -47.625 -62.484375"/></g><g id="j"><path d="M -48.6875 -34.828125 C -48.6875 -40.828125 -47.269531 -45.519531 -44.4375 -48.90625 C -41.601562 -52.289062 -37.515625 -53.984375 -32.171875 -53.984375 C -29.648438 -53.984375 -26.9375 -53.601562 -24.03125 -52.84375 C -18.6875 -51.40625 -14.15625 -49.1875 -10.4375 -46.1875 C -6.71875 -43.1875 -3.90625 -39.613281 -2 -35.46875 C -0.09375 -31.320312 0.859375 -26.816406 0.859375 -21.953125 C 0.859375 -15.992188 -0.554688 -11.320312 -3.390625 -7.9375 C -6.234375 -4.550781 -10.320312 -2.859375 -15.65625 -2.859375 C -18.09375 -2.859375 -20.882812 -3.265625 -24.03125 -4.078125 C -29.3125 -5.460938 -33.800781 -7.644531 -37.5 -10.625 C -41.195312 -13.601562 -43.984375 -17.148438 -45.859375 -21.265625 C -47.742188 -25.390625 -48.6875 -29.910156 -48.6875 -34.828125 Z M -41.6875 -33.53125 C -41.6875 -32.101562 -41.113281 -30.816406 -39.96875 -29.671875 C -38.820312 -28.523438 -36.945312 -27.390625 -34.34375 -26.265625 C -31.75 -25.148438 -28.144531 -23.953125 -23.53125 -22.671875 C -16.851562 -20.765625 -12.25 -19.8125 -9.71875 -19.8125 C -8.238281 -19.8125 -7.164062 -20.070312 -6.5 -20.59375 C -5.832031 -21.113281 -5.5 -21.945312 -5.5 -23.09375 C -5.5 -24.519531 -6.082031 -25.804688 -7.25 -26.953125 C -8.425781 -28.097656 -10.300781 -29.21875 -12.875 -30.3125 C -15.445312 -31.40625 -19 -32.625 -23.53125 -33.96875 C -30.101562 -35.820312 -34.722656 -36.75 -37.390625 -36.75 C -38.921875 -36.75 -40.019531 -36.484375 -40.6875 -35.953125 C -41.351562 -35.429688 -41.6875 -34.625 -41.6875 -33.53125 Z M -41.6875 -33.53125"/></g><g id="k"><path d="M -33.109375 -54.625 C -30.335938 -53.863281 -28.175781 -52.429688 -26.625 -50.328125 C -25.082031 -48.234375 -24.117188 -45.59375 -23.734375 -42.40625 C -23.546875 -44.6875 -22.878906 -46.398438 -21.734375 -47.546875 C -20.585938 -48.691406 -19.085938 -49.265625 -17.234375 -49.265625 C -16.515625 -49.265625 -15.632812 -49.144531 -14.59375 -48.90625 L -11.078125 -48.125 C -10.609375 -48.019531 -10.273438 -47.96875 -10.078125 -47.96875 C -9.460938 -47.96875 -9 -48.109375 -8.6875 -48.390625 C -8.375 -48.679688 -8.21875 -49.09375 -8.21875 -49.625 C -8.21875 -50.625 -8.070312 -51.347656 -7.78125 -51.796875 C -7.5 -52.253906 -6.976562 -52.410156 -6.21875 -52.265625 C -5.125 -52.078125 -4.050781 -51.503906 -3 -50.546875 C -1.957031 -49.597656 -1.085938 -48.253906 -0.390625 -46.515625 C 0.296875 -44.773438 0.640625 -42.664062 0.640625 -40.1875 C 0.640625 -37.039062 -0.0625 -34.535156 -1.46875 -32.671875 C -2.875 -30.816406 -4.882812 -29.890625 -7.5 -29.890625 C -8.507812 -29.890625 -9.582031 -30.03125 -10.71875 -30.3125 L -15.296875 -31.453125 C -15.921875 -31.648438 -16.566406 -31.75 -17.234375 -31.75 C -18.328125 -31.75 -19.113281 -31.378906 -19.59375 -30.640625 C -20.070312 -29.898438 -20.3125 -28.71875 -20.3125 -27.09375 L -20.3125 -24.375 L -8.4375 -21.09375 C -8.15625 -21 -7.796875 -20.953125 -7.359375 -20.953125 C -6.691406 -20.953125 -6.117188 -21.117188 -5.640625 -21.453125 C -5.171875 -21.785156 -4.671875 -22.238281 -4.140625 -22.8125 C -3.804688 -23.238281 -3.484375 -23.570312 -3.171875 -23.8125 C -2.867188 -24.050781 -2.550781 -24.171875 -2.21875 -24.171875 C -1.40625 -24.171875 -0.832031 -23.785156 -0.5 -23.015625 C -0.164062 -22.253906 0 -21.132812 0 -19.65625 L 0 -1.71875 C 0 -0.476562 -0.222656 0.445312 -0.671875 1.0625 C -1.128906 1.6875 -1.765625 1.90625 -2.578125 1.71875 C -3.003906 1.625 -3.347656 1.441406 -3.609375 1.171875 C -3.867188 0.910156 -4.164062 0.519531 -4.5 0 C -4.976562 -0.8125 -5.476562 -1.453125 -6 -1.921875 C -6.53125 -2.398438 -7.34375 -2.785156 -8.4375 -3.078125 L -39.25 -11.796875 C -39.875 -11.984375 -40.472656 -12.078125 -41.046875 -12.078125 C -41.566406 -12.078125 -42.003906 -11.992188 -42.359375 -11.828125 C -42.722656 -11.660156 -43.140625 -11.4375 -43.609375 -11.15625 C -44.234375 -10.726562 -44.734375 -10.515625 -45.109375 -10.515625 C -45.253906 -10.515625 -45.519531 -10.5625 -45.90625 -10.65625 C -46.519531 -10.84375 -46.957031 -11.257812 -47.21875 -11.90625 C -47.488281 -12.550781 -47.625 -13.539062 -47.625 -14.875 L -47.625 -38.828125 C -47.625 -42.117188 -47.117188 -44.988281 -46.109375 -47.4375 C -45.109375 -49.894531 -43.738281 -51.78125 -42 -53.09375 C -40.257812 -54.40625 -38.296875 -55.0625 -36.109375 -55.0625 C -35.109375 -55.0625 -34.109375 -54.914062 -33.109375 -54.625 Z M -33.8125 -36.328125 C -34.914062 -36.554688 -35.753906 -36.671875 -36.328125 -36.671875 C -38.847656 -36.671875 -40.109375 -35.289062 -40.109375 -32.53125 L -40.109375 -29.53125 L -27.453125 -26.390625 L -27.453125 -29.390625 C -27.453125 -31.242188 -27.90625 -32.707031 -28.8125 -33.78125 C -29.71875 -34.851562 -31.382812 -35.703125 -33.8125 -36.328125 Z M -33.8125 -36.328125"/></g><g id="d"><path d="M 6.773438 -1.957031 C 6.773438 -0.753906 7.226562 0 8.429688 0 L 28.75 0 C 47.039062 0 56.972656 -8.128906 56.972656 -26.417969 C 56.972656 -44.707031 47.039062 -52.683594 28.75 -52.683594 L 8.429688 -52.683594 C 7.226562 -52.683594 6.773438 -51.929688 6.773438 -50.726562 Z M 20.394531 -51.628906 L 26.339844 -51.628906 C 35.070312 -51.628906 42.671875 -38.835938 42.671875 -26.417969 C 42.671875 -14 35.070312 -1.054688 26.339844 -1.054688 L 20.394531 -1.054688 Z M 20.394531 -51.628906"/></g><g id="e"><path d="M 45.757812 0 C 47.039062 0 47.414062 -1.054688 46.738281 -1.957031 L 38.082031 -13.320312 C 37.554688 -14 36.652344 -14 35.824219 -14 C 28.449219 -14 25.289062 -16.332031 23.332031 -18.664062 L 25.136719 -18.664062 C 36.878906 -18.664062 42.976562 -21 42.976562 -30.480469 C 42.976562 -39.210938 36.878906 -41.542969 25.136719 -41.542969 L 7.675781 -41.542969 C 6.472656 -41.542969 6.019531 -40.792969 6.019531 -39.585938 L 6.019531 -1.957031 C 6.019531 -0.753906 6.472656 0 7.675781 0 L 17.234375 0 C 18.4375 0 18.890625 -0.753906 18.890625 -1.957031 L 18.890625 -18.664062 L 21.902344 -18.664062 L 33.417969 -1.957031 C 34.320312 -0.753906 35.523438 0 36.726562 0 Z M 22.652344 -40.492188 C 27.167969 -40.492188 30.03125 -39.890625 30.03125 -30.480469 C 30.03125 -21.074219 27.167969 -19.71875 22.652344 -19.71875 L 18.890625 -19.71875 L 18.890625 -40.492188 Z M 22.652344 -40.492188"/></g><g id="f"><path d="M 41.996094 -28.222656 C 41.996094 -38.984375 33.492188 -41.542969 22.730469 -41.542969 L 7.675781 -41.542969 C 6.472656 -41.542969 6.019531 -40.792969 6.019531 -39.585938 L 6.019531 -1.957031 C 6.019531 -0.753906 6.472656 0 7.675781 0 L 17.234375 0 C 18.4375 0 18.890625 -0.753906 18.890625 -1.957031 L 18.890625 -14.902344 L 22.730469 -14.902344 C 33.492188 -14.902344 41.996094 -17.460938 41.996094 -28.222656 Z M 18.890625 -40.492188 L 21.375 -40.492188 C 26.417969 -40.492188 28.222656 -34.167969 28.222656 -28.222656 C 28.222656 -22.277344 26.417969 -15.957031 21.375 -15.957031 L 18.890625 -15.957031 Z M 18.890625 -40.492188"/></g><clipPath id="a"><path d="M 117.414062 192.269531 L 208.742188 192.269531 L 208.742188 283.363281 L 117.414062 283.363281 Z M 117.414062 192.269531"/></clipPath><clipPath id="b"><path d="M 253.523438 102 L 303.960938 102 L 303.960938 122.742188 L 253.523438 122.742188 Z M 253.523438 102"/></clipPath><clipPath id="c"><path d="M 21.960938 1.363281 L 73 1.363281 L 73 22 L 21.960938 22 Z M 21.960938 1.363281"/></clipPath></defs><path fill="#FFF" d="M-37.5 -37.5H412.5V412.5H-37.5z"/><path fill="#FFF" d="M-37.5 -37.5H412.5V412.5H-37.5z"/><path fill="#FFF" d="M-37.5 -37.5H412.5V412.5H-37.5z"/><path fill="#FFFC00" d="M 117.800781 71.050781 C 118.742188 43.679688 126.160156 20.183594 137.316406 5.9375 C 110.121094 15.800781 90.117188 40.792969 87.683594 70.734375 C 92.148438 68.199219 97.238281 66.835938 102.542969 66.835938 C 107.949219 66.835938 113.210938 68.355469 117.800781 71.050781"/><path fill="#FFFC00" d="M 118.308594 84.609375 C 114.5 79.800781 108.664062 76.910156 102.542969 76.910156 C 97.441406 76.910156 92.699219 78.886719 88.988281 82.289062 L 145.859375 156.933594 L 118.308594 84.609375"/><path fill="#FFFC00" d="M 142.828125 76.910156 C 137.410156 76.910156 132.28125 79.246094 128.511719 83.089844 L 162.976562 173.5625 L 197.4375 83.089844 C 193.667969 79.246094 188.539062 76.910156 183.121094 76.910156 C 176.824219 76.910156 170.796875 79.925781 167 84.976562 C 166.941406 85.054688 166.835938 85.082031 166.773438 85.15625 C 165.847656 86.25 164.519531 86.984375 162.976562 86.984375 C 161.429688 86.984375 160.101562 86.25 159.175781 85.15625 C 159.109375 85.082031 159.011719 85.054688 158.949219 84.976562 C 155.152344 79.925781 149.125 76.910156 142.828125 76.910156"/><path fill="#FFFC00" d="M 198.082031 70.902344 C 196.734375 36.242188 183.917969 7.40625 168.007812 2.269531 L 168.007812 70.972656 C 172.566406 68.335938 177.765625 66.835938 183.121094 66.835938 C 188.417969 66.835938 193.558594 68.316406 198.082031 70.902344"/><path fill="#FFFC00" d="M 178.082031 243.105469 L 152.902344 243.105469 L 152.902344 253.175781 L 178.082031 253.175781 C 180.859375 253.175781 183.121094 250.917969 183.121094 248.140625 C 183.121094 245.359375 180.859375 243.105469 178.082031 243.105469"/><path fill="#FFFC00" d="M 142.828125 66.835938 C 148.183594 66.835938 153.382812 68.335938 157.9375 70.972656 L 157.9375 2.269531 C 142.03125 7.40625 129.214844 36.242188 127.867188 70.902344 C 132.390625 68.316406 137.535156 66.835938 142.828125 66.835938"/><g clip-path="url(#a)"><path fill="#FFFC00" d="M 193.191406 248.140625 C 193.191406 256.472656 186.414062 263.25 178.082031 263.25 L 178.082031 273.320312 L 168.007812 273.320312 L 168.007812 263.25 L 162.976562 263.25 L 162.976562 273.320312 L 152.902344 273.320312 L 152.902344 263.25 L 147.867188 263.25 C 147.859375 263.25 147.851562 263.246094 147.84375 263.246094 L 147.84375 263.285156 L 132.738281 263.214844 L 132.78125 253.144531 L 142.828125 253.1875 L 142.828125 222.960938 L 132.757812 222.960938 L 132.757812 212.886719 L 152.902344 212.886719 L 152.902344 202.816406 L 162.976562 202.816406 L 162.976562 212.886719 L 168.007812 212.886719 L 168.007812 202.816406 L 178.082031 202.816406 L 178.082031 212.886719 C 186.414062 212.886719 193.191406 219.664062 193.191406 227.996094 C 193.191406 231.878906 191.675781 235.390625 189.261719 238.070312 C 191.675781 240.75 193.191406 244.257812 193.191406 248.140625 Z M 162.976562 192.742188 C 137.980469 192.742188 117.648438 213.074219 117.648438 238.070312 C 117.648438 263.0625 137.980469 283.394531 162.976562 283.394531 C 187.964844 283.394531 208.300781 263.0625 208.300781 238.070312 C 208.300781 213.074219 187.964844 192.742188 162.976562 192.742188"/></g><path fill="#FFFC00" d="M 207.640625 84.609375 L 180.089844 156.933594 L 236.960938 82.289062 C 233.25 78.886719 228.507812 76.910156 223.410156 76.910156 C 217.285156 76.910156 211.449219 79.800781 207.640625 84.609375"/><path fill="#FFFC00" d="M 188.632812 5.9375 C 199.789062 20.183594 207.207031 43.679688 208.148438 71.050781 C 212.738281 68.355469 218 66.835938 223.410156 66.835938 C 228.710938 66.835938 233.800781 68.199219 238.265625 70.734375 C 235.832031 40.792969 215.828125 15.800781 188.632812 5.9375"/><path fill="#FFFC00" d="M 178.082031 222.960938 L 152.902344 222.960938 L 152.902344 233.035156 L 178.082031 233.035156 C 180.859375 233.035156 183.121094 230.777344 183.121094 227.996094 C 183.121094 225.21875 180.859375 222.960938 178.082031 222.960938"/><g clip-path="url(#b)"><path fill="#FFFC00" d="M 298.953125 112.164062 L 292.992188 112.164062 C 290.863281 112.164062 288.960938 110.820312 288.246094 108.8125 C 286.8125 104.789062 283.023438 102.089844 278.808594 102.089844 C 274.59375 102.089844 270.800781 104.789062 269.367188 108.8125 C 268.652344 110.820312 266.75 112.164062 264.621094 112.164062 L 258.660156 112.164062 C 255.886719 112.164062 253.625 114.421875 253.625 117.199219 C 253.625 119.980469 255.886719 122.238281 258.660156 122.238281 L 298.953125 122.238281 C 301.726562 122.238281 303.988281 119.980469 303.988281 117.199219 C 303.988281 114.421875 301.726562 112.164062 298.953125 112.164062"/></g><g clip-path="url(#c)"><path fill="#FFFC00" d="M 67.289062 11.441406 L 61.328125 11.441406 C 59.195312 11.441406 57.296875 10.097656 56.582031 8.089844 C 55.148438 4.066406 51.359375 1.367188 47.140625 1.367188 C 42.925781 1.367188 39.136719 4.066406 37.703125 8.089844 C 36.988281 10.097656 35.085938 11.441406 32.957031 11.441406 L 26.996094 11.441406 C 24.222656 11.441406 21.960938 13.695312 21.960938 16.476562 C 21.960938 19.253906 24.222656 21.511719 26.996094 21.511719 L 67.289062 21.511719 C 70.0625 21.511719 72.324219 19.253906 72.324219 16.476562 C 72.324219 13.695312 70.0625 11.441406 67.289062 11.441406"/></g><g fill="#FFFC00"><use x="-1.189" y="265.471" xmlns:xlink="http://www.w3.org/1999/xlink" xlink:href="#d" xlink:type="simple" xlink:actuate="onLoad" xlink:show="embed"/></g><g fill="#FFFC00"><use x="59.546" y="265.471" xmlns:xlink="http://www.w3.org/1999/xlink" xlink:href="#e" xlink:type="simple" xlink:actuate="onLoad" xlink:show="embed"/></g><g fill="#FFFC00"><use x="-1.189" y="265.471" xmlns:xlink="http://www.w3.org/1999/xlink" xlink:href="#d" xlink:type="simple" xlink:actuate="onLoad" xlink:show="embed"/></g><g fill="#FFFC00"><use x="59.546" y="265.471" xmlns:xlink="http://www.w3.org/1999/xlink" xlink:href="#e" xlink:type="simple" xlink:actuate="onLoad" xlink:show="embed"/></g><g fill="#FFFC00"><use x="220.613" y="265.471" xmlns:xlink="http://www.w3.org/1999/xlink" xlink:href="#f" xlink:type="simple" xlink:actuate="onLoad" xlink:show="embed"/></g><g fill="#FFFC00"><use x="264.098" y="265.471" xmlns:xlink="http://www.w3.org/1999/xlink" xlink:href="#g" xlink:type="simple" xlink:actuate="onLoad" xlink:show="embed"/></g><g><use x="367.627" y="277.399" xmlns:xlink="http://www.w3.org/1999/xlink" xlink:href="#h" xlink:type="simple" xlink:actuate="onLoad" xlink:show="embed"/></g><g><use x="367.627" y="223.282" xmlns:xlink="http://www.w3.org/1999/xlink" xlink:href="#i" xlink:type="simple" xlink:actuate="onLoad" xlink:show="embed"/></g><g><use x="367.627" y="163.66" xmlns:xlink="http://www.w3.org/1999/xlink" xlink:href="#j" xlink:type="simple" xlink:actuate="onLoad" xlink:show="embed"/></g><g><use x="367.627" y="111.259" xmlns:xlink="http://www.w3.org/1999/xlink" xlink:href="#k" xlink:type="simple" xlink:actuate="onLoad" xlink:show="embed"/></g></svg>